<svg xmlns="http://www.w3.org/2000/svg" width="32" height="32" viewBox="0 0 64 64" fill="none">
  <defs>
    <linearGradient id="g" x1="0" y1="0" x2="64" y2="64" gradientUnits="userSpaceOnUse">
      <stop offset="0" stop-color="#10B981"/>
      <stop offset="1" stop-color="#059669"/>
    </linearGradient>
  </defs>
  <!-- Circle background -->
  <circle cx="32" cy="32" r="30" fill="url(#g)"/>
  <!-- Palm tree -->
  <path d="M34 20c6-6 12-4 16 0-6 2-10 2-16 0Zm-4 0c-6-6-12-4-16 0 6 2 10 2 16 0Z" fill="#fff" fill-opacity="0.95"/>
  <rect x="30" y="22" width="4" height="18" rx="1" fill="#fff" fill-opacity="0.95"/>
  <!-- Houseboat wave -->
  <path d="M14 46c4 4 10 4 18 0 8 4 14 4 18 0" stroke="#fff" stroke-width="3" stroke-linecap="round"/>
  <!-- Simplified boat -->
  <path d="M20 40h24c-2 4-8 6-12 6s-10-2-12-6Z" fill="#fff" fill-opacity="0.95"/>
</svg>
